 http://img825.imageshack.us/img825/7266/redstate2011.jpg

Country.......: USA
Genre.........: Horror, Thriller, Drama
Date release..: 23.01.2011 [World]
Director......: Kevin Smith
Writers.......: Kevin Smith
Duration......: 88 min.
More..........: http://www.imdb.com/title/tt0873886
Trailer.......: http://www.imdb.com/video/imdb/vi247897113
Trailer.......:

Pilot :
Set in Middle America, a group of teens receive an online invitation for sex, though they soon encounter fundamentalists with a much more sinister agenda. 

Cats :
Michael Angarano   	 ...  	Travis
Deborah Aquila 	... 	Mrs. Vasquez
Nicholas Braun 	... 	Billy Ray
Ronnie Connell 	... 	Randy
Kaylee DeFer 	... 	Dana
Joey Figueroa 	... 	Route 9 Friend
Kyle Gallner 	... 	Jarod
Anna Gunn 	... 	Travis Mother
Matt L. Jones 	... 	Deputy Pete (as Matt Jones)
John Lacy 	... 	Travis Father
Catherine McCord 	... 	News Reporter
Alexa Nikolas 	... 	Jesse
Stephen Root 	... 	Sherrif Wynan
Cooper Thornton 	... 	Plastic Wrap Man
Betty Aberlin 	... 	Abigail 

Data Technical :
!!! SAMPLE !!!
Audio.....: English
Subtitles.: None
Format                           : AVI
Format/Info                      : Audio Video Interleave
File size                        : 701 MiB
Duration                         : 1h 28mn
Overall bit rate                 : 1 108 Kbps
Writing application              : transcode-0.6.14
Video
ID                               : 0
Format                           : MPEG-4 Visual
Format profile                   : Advanced Simple@L5
Format settings, BVOP            : Yes
Format settings, QPel            : No
Format settings, GMC             : No warppoints
Format settings, Matrix          : Default (H.263)
Codec ID                         : XVID
Codec ID/Hint                    : XviD
Duration                         : 1h 28mn
Bit rate                         : 956 Kbps
Width                            : 640 pixels
Height                           : 352 pixels
Display aspect ratio             : 16:9
Frame rate                       : 23.976 fps
Color space                      : YUV
Chroma subsampling               : 4:2:0
Bit depth                        : 8 bits
Scan type                        : Progressive
Bits/(Pixel*Frame)               : 0.177
Stream size                      : 605 MiB (86%)
Writing library                  : XviD 64
Audio
ID                               : 1
Format                           : MPEG Audio
Format version                   : Version 1
Format profile                   : Layer 3
Mode                             : Joint stereo
Codec ID                         : 55
Codec ID/Hint                    : MP3
Duration                         : 1h 28mn
Bit rate mode                    : Variable
Bit rate                         : 144 Kbps
Channel(s)                       : 2 channels
Sampling rate                    : 48.0 KHz
Bit depth                        : 16 bits
Stream size                      : 88.1 MiB (13%)
Alignment                        : Aligned on interleaves
Interleave, duration             : 24 ms (0.58 video frame)
Writing library                  : LAME3.98r
Encoding settings                : -m j -V 4 -q 2 -lowpass 17.5 --abr 144

Screen : 
http://img163.imageshack.us/img163/5645/redstate2011s1.jpg 
http://img851.imageshack.us/img851/1261/redstate2011s2.jpg 
http://img694.imageshack.us/img694/6766/redstate2011s3.jpg 
http://img594.imageshack.us/img594/8605/redstate2011s4.jpg 
http://img689.imageshack.us/img689/3969/redstate2011s5.jpg